<svg xmlns="http://www.w3.org/2000/svg" viewBox="0 0 100 100"><g>
<defs><clipPath id="hc"><path d="M50 90 C21 69 7 52 7 34 C7 19 18 9 32 9 C40 9 46 13 50 20 C54 13 60 9 68 9 C82 9 93 19 93 34 C93 52 79 69 50 90 Z"/></clipPath></defs>
<path d="M38 47 A12 12 0 0 1 62 47 Z" fill="#d86b80"/>
<g stroke="#d86b80" stroke-width="2.6" stroke-linecap="round"><line x1="35.0" y1="41.5" x2="28.4" y2="39.1"/><line x1="40.8" y1="33.9" x2="36.8" y2="28.2"/><line x1="50.0" y1="31.0" x2="50.0" y2="24.0"/><line x1="59.2" y1="33.9" x2="63.2" y2="28.2"/><line x1="65.0" y1="41.5" x2="71.6" y2="39.1"/></g>
<g clip-path="url(#hc)"><path d="M48.3 49.5 L48.4 50.6 L48.5 51.8 L48.7 52.9 L49.0 54.0 L49.3 55.1 L49.5 56.2 L49.7 57.4 L49.8 58.5 L49.7 59.6 L49.5 60.8 L49.1 61.9 L48.4 63.0 L47.6 64.1 L46.6 65.2 L45.3 66.4 L43.9 67.5 L42.3 68.6 L40.7 69.8 L38.9 70.9 L37.2 72.0 L35.5 73.1 L33.9 74.2 L32.4 75.4 L31.0 76.5 L30.0 77.6 L29.1 78.8 L28.5 79.9 L28.2 81.0 L28.2 82.1 L28.4 83.2 L28.9 84.4 L29.6 85.5 L30.4 86.6 L31.3 87.8 L32.2 88.9 L33.1 90.0 L33.9 91.1 L34.4 92.2 L34.8 93.4 L34.8 94.5 L86.2 94.5 L84.1 93.4 L81.8 92.2 L79.3 91.1 L76.6 90.0 L73.9 88.9 L71.1 87.8 L68.4 86.6 L65.8 85.5 L63.4 84.4 L61.3 83.2 L59.4 82.1 L57.8 81.0 L56.5 79.9 L55.6 78.8 L54.9 77.6 L54.6 76.5 L54.5 75.4 L54.6 74.2 L54.9 73.1 L55.4 72.0 L55.9 70.9 L56.4 69.8 L57.0 68.6 L57.4 67.5 L57.8 66.4 L58.0 65.2 L58.1 64.1 L58.0 63.0 L57.8 61.9 L57.4 60.8 L56.9 59.6 L56.3 58.5 L55.6 57.4 L54.8 56.2 L54.1 55.1 L53.4 54.0 L52.7 52.9 L52.2 51.8 L51.9 50.6 L51.7 49.5 Z" fill="#d86b80"/></g>
<path d="M50 90 C21 69 7 52 7 34 C7 19 18 9 32 9 C40 9 46 13 50 20 C54 13 60 9 68 9 C82 9 93 19 93 34 C93 52 79 69 50 90 Z" fill="none" stroke="#0f2f5c" stroke-width="5" stroke-linejoin="round"/>
</g></svg>